<svg xmlns="http://www.w3.org/2000/svg" viewBox="0 0 224 80"><defs><style>.cls-2{fill:#fff}</style></defs><g id="Layer_1"><path class="cls-2" d="M58.487 76.684c-.092-.275-.138-.551-.184-.78-.275-.734-.459-1.469-.78-2.157-.505-1.055-.459-2.111-.275-3.212.092-.413.092-.872.184-1.331s.184-.964.413-1.377c.872-1.836 1.79-3.625 2.708-5.415.505-1.01 1.239-1.79 2.386-2.065 1.055-.229 1.836-.78 2.432-1.606.229-.321.505-.597.734-.872.642-.688 1.652-.78 2.34-.184s.78 1.606.138 2.34c-.688.78-1.377 1.606-2.111 2.34a2.348 2.348 0 01-1.101.597c-1.239.275-2.065.872-2.524 2.157-.505 1.377-1.423 2.57-1.927 3.947-.459 1.193-.688 2.432-.275 3.717.505 1.514.964 3.075 1.469 4.589.505 1.423-.046 2.616-1.836 2.616-2.111 0-4.268.092-6.333-.229-2.34-.321-4.543-1.331-6.471-2.753-.872-.642-1.331-1.514-1.698-2.478-.321-.872-.688-1.698-.918-2.57a11.427 11.427 0 00-3.855-5.736c-.367-.321-.734-.688-1.101-1.01-1.423-1.193-2.295-2.662-2.799-4.406-.229-.734-.505-1.514-.688-2.249-.459-1.927-1.652-3.258-3.121-4.406a11.717 11.717 0 00-3.166-1.698c-1.79-.642-3.35.092-4.13 1.606-.734 1.377-1.652 2.57-2.662 3.717-.505.551-1.193.78-1.836.505-2.524-1.055-4.956-2.249-7.251-3.671-1.331-.872-2.111-2.111-2.524-3.579a87.08 87.08 0 01-.918-3.671c-.321-1.285-.918-2.34-1.973-3.121-1.055-.826-2.111-1.652-3.258-2.34s-2.065-1.514-2.799-2.616c-.734-1.101-1.423-2.249-2.111-3.396-.78-1.285.275-2.57 1.514-2.57 6.471.046 12.987.046 19.504 0q.78 0 .78-.78V1.927c0-1.101.413-1.698 1.331-1.882.182-.045.32-.045.504-.045h16.98c1.101 0 1.927.688 1.881 1.927 0 4.084.046 8.214.092 12.299 0 .321.138.505.413.642 2.203.964 4.406 1.973 6.608 2.937.229.092.505.092.78.046.459-.092.872-.229 1.331-.275.918-.092 1.652.367 2.295.964 1.055.964 2.295 1.193 3.579.688 1.055-.413 1.973-.046 2.937.184 2.34.505 4.635.413 6.792-.78l.826-.413c.688-.367 1.377-.367 2.019 0 1.882 1.147 3.947 1.652 6.103 1.882.459.046.918.138 1.423.184.826.138 1.377.826 1.377 1.698v5.736c0 1.01-.734 1.698-1.744 1.698-.918 0-1.606-.734-1.606-1.744v-3.809c0-.413-.184-.551-.551-.597-1.239-.275-2.432-.505-3.625-.826-.688-.184-1.331-.551-2.019-.826-.321-.138-.551-.138-.872 0-1.01.413-2.019.964-3.121 1.101-2.157.367-4.314.413-6.425-.275-.275-.092-.597-.046-.872 0-1.927.597-3.717.184-5.461-.642-.275-.138-.505-.459-.78-.597-.184-.138-.459-.275-.688-.184-1.331.367-2.524.184-3.717-.413-2.34-1.147-4.727-2.157-7.113-3.166-.826-.367-1.239-.918-1.239-1.836 0-3.855-.046-7.71-.092-11.565q0-.642-.642-.642H26.319q-.688 0-.688.688v30.655c0 1.193-.78 1.927-1.973 1.927-6.012-.046-12.023 0-17.989 0h-.826c.551.872.964 1.652 1.79 2.111 1.744 1.055 3.396 2.157 4.864 3.534 1.193 1.147 1.973 2.524 2.386 4.13l.964 3.717c.229.872.688 1.56 1.469 1.973 1.652.826 3.258 1.698 4.91 2.57.229.138.413.092.551-.138.367-.551.78-1.101 1.101-1.698 1.423-2.524 3.488-3.947 6.425-3.763.78.046 1.56.275 2.295.551 2.616 1.01 4.727 2.616 6.425 4.819.964 1.285 1.285 2.799 1.79 4.268.046.138.092.321.138.459.413 1.973 1.652 3.396 3.166 4.681 1.606 1.377 3.121 2.891 3.947 4.91.505 1.239 1.055 2.432 1.377 3.717.413 1.56 1.377 2.478 2.845 3.166 2.203 1.01 4.497 1.377 6.884 1.285.092-.229.184-.229.321-.275zm115.186-24.69c-.138-.092-.321-.138-.459-.229-.597-.413-1.285-.734-1.744-1.239-1.423-1.514-1.01-3.579.826-4.497.367-.184.78-.321 1.193-.505.138-.046.275-.092.551-.229a11.299 11.299 0 01-.688-.321c-1.239-.597-2.34-1.331-2.983-2.57a5.021 5.021 0 011.377-6.241c1.836-1.423 3.947-1.79 6.195-1.652.826.046 1.698.275 2.524.413.275.046.551.092.826.092h5.553v1.882h-3.304l.184.367c1.79 2.753.918 6.012-2.019 7.48-1.193.597-2.478.872-3.809.872h-2.386c-.551 0-.964.367-1.101 1.01-.092.551.138 1.101.688 1.239a9.776 9.776 0 001.606.275c1.79.092 3.579.138 5.323.275 2.203.184 4.038 1.606 4.589 3.534.597 2.111-.138 4.497-1.927 5.828-1.514 1.147-3.258 1.652-5.094 1.836-2.386.229-4.727.184-7.067-.413-.964-.275-1.882-.688-2.616-1.423-1.698-1.744-1.147-4.406 1.147-5.232.688-.229 1.423-.321 2.157-.459.138-.046.275-.046.413-.046 0 .046.046 0 .046-.046zm4.131.459h-2.295c-.184 0-.367.046-.505.184-1.377 1.377-1.836 3.947.642 5.277 1.193.642 2.432.551 3.717.367 1.652-.275 2.478-1.101 2.753-2.662.367-1.927-.505-2.983-2.432-3.075-.688-.046-1.331-.092-1.882-.092zm-2.937-12.849h.092v.78c.046 1.101.184 2.157.826 3.121.734 1.101 2.157 1.147 2.937.092l.413-.688c.459-1.193.551-2.432.413-3.671-.092-.78-.321-1.606-.597-2.34-.275-.688-.826-1.055-1.606-1.055-.918 0-1.652.459-1.973 1.469-.275.734-.367 1.514-.505 2.295z"/><path class="cls-2" d="M54.495 50.755v1.331H42.242v-1.331c.551-.092 1.055-.138 1.606-.229 1.239-.184 1.744-.78 1.744-2.019V29.095h-1.01c-.551.046-1.147.092-1.698.092-.734.046-1.285.367-1.744.918-.918 1.147-1.606 2.478-2.065 3.855-.184.505-.413.688-.918.597-.138-.046-.321 0-.505 0v-7.021h21.339v6.975h-1.055c-.597-1.147-1.147-2.295-1.744-3.442-.138-.275-.367-.551-.551-.826-.505-.734-1.193-1.101-2.065-1.101-.78 0-1.606-.092-2.478-.138 0 .229-.046.413-.046.551v18.54c0 1.469.413 1.973 1.79 2.295.597.184 1.101.275 1.652.367zm75.49-21.89v-1.239h12.069v1.285c-.642.092-1.285.184-1.882.321-1.01.229-1.377.642-1.469 1.698v16.521c0 .459.046.918.092 1.377.138 1.01.597 1.469 1.606 1.606 1.652.229 3.35.184 5.002-.138.642-.138 1.147-.459 1.514-.964 1.01-1.331 1.698-2.799 2.34-4.314q.367-.872 1.423-.688l-.138 2.34c-.092 1.652-.184 3.35-.275 5.002 0 .321-.092.459-.459.459h-19.917V50.8c.459-.092.964-.138 1.423-.229 1.377-.229 1.79-.734 1.79-2.111V31.067c0-.78-.367-1.331-1.055-1.56-.597-.275-1.331-.413-2.065-.642zm-28.544 21.294c-.367.321-.642.642-.964.872-1.56 1.377-3.396 1.836-5.369 1.514-2.157-.321-3.579-2.203-3.488-4.451.046-2.157 1.055-3.671 3.029-4.497 1.606-.642 3.258-1.193 4.91-1.744.505-.184 1.055-.367 1.514-.642.138-.046.321-.275.275-.413-.046-1.01 0-2.065-.138-3.075-.275-1.882-2.249-2.616-3.763-1.423-.092.092-.184.275-.138.413.092.459.229.918.321 1.377.367 1.698-.597 2.891-2.295 2.891h-.551c-.964-.046-1.744-.367-2.157-1.285s-.413-1.836.184-2.708c.734-1.01 1.744-1.56 2.891-1.973 2.386-.872 4.819-.872 7.251-.275 2.065.505 3.35 2.065 3.488 4.176.092 1.882.046 3.763 0 5.645 0 1.193-.046 2.386-.092 3.534 0 .321.046.642.092 1.01.138.78.642 1.239 1.423 1.285.367.046.78 0 1.239 0v1.101c0 .092-.138.275-.229.321-1.606.734-3.304.964-5.048.597-1.193-.184-1.973-.964-2.386-2.249zm-.092-7.435c-.78.367-1.469.642-2.111 1.01-1.79.964-2.524 2.478-2.157 4.497.229 1.285 1.193 1.927 2.432 1.652.688-.138 1.193-.551 1.606-1.055a.871.871 0 00.229-.597c.046-1.514.046-3.029.046-4.543 0-.275-.046-.551-.046-.964zm103.806 7.71v1.101c0 .092-.138.275-.229.321-1.698.78-3.442 1.01-5.277.551-1.01-.275-1.469-.734-2.157-2.203-.229.229-.459.459-.734.688-1.882 1.698-4.038 2.249-6.379 1.423-1.698-.551-2.57-1.882-2.662-3.671-.138-2.524.78-3.993 3.121-5.048.826-.367 1.652-.642 2.478-.964 1.239-.459 2.478-.872 3.763-1.331.321-.092.413-.321.413-.642-.046-.964 0-1.927-.184-2.891-.367-2.295-2.432-2.34-3.717-1.469-.138.092-.184.367-.138.551.092.688.321 1.331.367 1.973.046 1.101-.597 1.882-1.698 2.065-.551.092-1.193.138-1.744 0-1.79-.321-2.524-2.432-1.423-3.947.597-.826 1.469-1.377 2.432-1.79 2.524-1.055 5.14-1.101 7.756-.413 2.249.597 3.396 2.157 3.488 4.727.046 1.882-.046 3.809-.046 5.69 0 1.193-.046 2.432 0 3.625.046 1.01.642 1.514 1.652 1.514.229.138.551.138.918.138zm-7.756-7.71c-.734.321-1.377.642-2.019.964-1.836.872-2.478 2.386-2.295 4.36.138 1.469 1.285 2.249 2.708 1.836a2.107 2.107 0 001.56-2.065v-3.304c.046-.597.046-1.147.046-1.79zm-39.925.184c0 1.973.184 3.809 1.285 5.461 1.285 1.927 4.314 2.386 6.287 1.01.413-.321.826-.688 1.193-1.055.367-.367.688-.826 1.055-1.285.367.275.734.597 1.147.918-.413.872-1.01 1.606-1.698 2.295-3.534 3.534-9.499 2.845-12.253.138-1.331-1.331-2.065-2.937-2.386-4.773-.367-2.295-.184-4.497.826-6.608 1.56-3.121 4.727-4.864 8.214-4.589 1.331.092 2.616.321 3.809 1.055 1.882 1.147 2.799 2.937 3.029 5.094.046.597.046 1.239.092 1.836.046.413-.092.505-.505.505h-10.096zm4.91-1.514c0-.551.046-1.055 0-1.514-.138-.964-.275-1.927-.551-2.845-.367-1.101-1.514-1.514-2.478-1.01-.459.229-.826.688-1.101 1.147-.734 1.285-.78 2.753-.826 4.222h4.956z"/><path class="cls-2" d="M72.3 47.084c.321.229.688.551 1.055.872-.597 1.101-1.377 2.065-2.386 2.845-3.396 2.799-8.949 2.157-11.565-.413-1.331-1.285-2.065-2.845-2.386-4.635-.413-2.203-.275-4.36.642-6.425 1.514-3.304 4.727-5.232 8.352-4.91.78.092 1.606.138 2.34.367 2.57.826 3.993 2.616 4.406 5.232.138.78.092 1.56.138 2.34.046.413-.138.459-.505.459H62.387v1.285c.092 1.147.321 2.203.734 3.258 1.239 3.075 5.186 3.304 6.93 1.836.826-.551 1.514-1.331 2.249-2.111zm-4.772-5.69a86.565 86.565 0 00-.459-3.625c-.046-.413-.275-.826-.505-1.147-.413-.642-1.101-.872-1.882-.688-.78.184-1.239.78-1.56 1.469-.597 1.285-.642 2.662-.688 4.038 1.652-.046 3.304-.046 5.094-.046z"/><path class="cls-2" d="M81.754 52.086v-1.239c.459-.046.872-.138 1.331-.184.367-.046.551-.275.367-.642-.872-1.56-1.79-3.075-2.708-4.727-.505.642-.918 1.147-1.285 1.698-.551.734-1.055 1.469-1.56 2.203-.642.918-.459 1.377.688 1.56.184.046.367.046.597.046v1.239h-6.241v-1.055c0-.092.138-.229.275-.275 1.239-.321 2.111-1.101 2.937-2.065 1.147-1.377 2.34-2.753 3.488-4.13a2.96 2.96 0 01.367-.413c-.321-.505-.688-1.055-1.01-1.56-.918-1.469-1.882-2.891-2.799-4.36-.688-1.147-1.606-1.973-3.029-2.019v-1.239h9.408v1.193c-.367.046-.688.092-1.055.138-.413.046-.505.275-.321.597l.551 1.101c.597 1.055 1.239 2.065 1.927 3.212.918-1.331 1.79-2.524 2.662-3.809.275-.459.138-.826-.367-1.01-.184-.092-.367-.092-.551-.138-.184-.046-.321-.046-.505-.092v-1.193h6.149v1.055c0 .092-.138.229-.275.275-1.055.275-1.882.918-2.57 1.744-1.239 1.423-2.432 2.845-3.671 4.314.642 1.01 1.239 2.019 1.882 2.983.78 1.239 1.606 2.432 2.34 3.671.642 1.01 1.423 1.79 2.753 1.836v1.285h-9.775zm40.43-16.658c.138-.275.184-.734.413-.872.275-.138.688-.046 1.101-.046.092 1.927.184 3.855.229 5.874-.321 0-.597.046-.872 0-.138 0-.275-.184-.321-.321-.459-1.239-1.147-2.295-2.157-3.121s-2.111-1.147-3.396-.826c-.964.229-1.469.826-1.606 1.698-.138.964.275 1.79 1.101 2.203.872.413 1.79.688 2.662 1.055.964.367 1.973.734 2.845 1.239 1.973 1.147 2.708 2.937 2.478 5.14-.321 2.753-2.203 4.543-5.186 5.094-2.57.459-4.91 0-7.205-1.377-.138.918-.597 1.469-1.652 1.055-.046-2.065-.138-4.176-.184-6.379.367 0 .642-.046.918 0 .138 0 .275.184.321.321.459 1.101 1.01 2.157 1.836 3.075 1.147 1.239 2.478 2.065 4.268 1.927 1.239-.138 1.973-.688 2.203-1.744.275-1.331-.092-2.203-1.285-2.753-.964-.459-2.019-.78-3.075-1.147-1.01-.367-1.973-.734-2.891-1.423-2.616-2.019-2.937-7.205 1.239-8.995 1.973-.872 3.993-.872 6.012-.413.826.229 1.469.505 2.203.734zm83.934 16.658v-1.239c.321-.046.597-.092.918-.138.918-.138 1.331-.597 1.377-1.56V29.508c-.092-1.01-.551-1.79-1.606-2.111a11.24 11.24 0 00-1.331-.367v-1.193c.459-.046.918-.092 1.331-.092 1.973-.138 3.993-.229 5.966-.367.688-.046.78 0 .78.734v22.211c0 1.652.367 2.111 1.973 2.478.092.046.229.046.321.092v1.239c-3.212-.046-6.471-.046-9.729-.046zm13.813-.046c.092-1.193.184-2.34.229-3.534.413-.184.642-.046.78.367.229.78.505 1.514.826 2.386.321-.826.597-1.606.872-2.34.046-.092.046-.229.138-.321.138-.092.275-.184.413-.184.092 0 .229.184.229.275.092 1.01.138 1.973.184 2.983 0 .092-.138.229-.184.367-.092-.092-.229-.184-.229-.321l-.138-2.065c0-.138 0-.321-.046-.597-.321.918-.642 1.744-.918 2.524-.046.138-.229.275-.321.413-.092-.138-.275-.275-.321-.413a48.23 48.23 0 00-.872-2.34l-.138 2.386c-.046.321-.092.597-.505.413zm-1.881-2.983c-.367-.367-.964.184-1.147-.551h2.478c.092 0 .138.138.229.229-.092.046-.184.184-.275.184-.229.046-.505 0-.78 0v3.166c-.321.138-.505.092-.505-.275v-2.753zM81.985 64.063h2.606l3.807 10.407h-2.575l-.796-2.387H81.36l-.796 2.387h-2.465l3.885-10.407zm2.481 6.194l-1.264-3.932-1.295 3.932h2.559zm4.884-6.194h2.247V74.47H89.35V64.063zm2.949 3.089h2.309l1.279 4.697 1.42-4.697h1.794l1.435 4.697 1.279-4.697h2.263l-2.512 7.318h-2.028l-1.373-4.088-1.357 4.088h-1.997l-2.512-7.318zm16.913 6.631c-.25.291-.564.515-.944.671a3.32 3.32 0 01-1.272.234 3.31 3.31 0 01-.819-.109 2.412 2.412 0 01-.796-.367 2.036 2.036 0 01-.609-.695c-.161-.291-.242-.655-.242-1.092 0-.426.086-.806.257-1.139s.408-.611.71-.835a3.218 3.218 0 011.069-.507 4.977 4.977 0 011.334-.172c.26 0 .523.005.788.016s.439.026.523.047v-.156c0-.187-.039-.346-.117-.475s-.182-.239-.312-.328a1.266 1.266 0 00-.445-.187 2.498 2.498 0 00-.53-.055c-.499 0-.913.062-1.24.187a4.034 4.034 0 00-.835.421l-.921-1.373a5.84 5.84 0 01.531-.343 3.99 3.99 0 01.702-.312c.27-.094.575-.169.913-.226a7.04 7.04 0 011.162-.086c1.113 0 1.935.299 2.465.897.531.598.796 1.402.796 2.411v4.26h-2.106l-.063-.687zm0-2.543a4.532 4.532 0 00-.795-.062c-.624 0-1.066.088-1.326.265s-.39.427-.39.749c0 .603.364.905 1.092.905.177 0 .351-.028.523-.086s.322-.138.452-.242a1.25 1.25 0 00.32-.39c.083-.156.125-.338.125-.546v-.593zm3.885 4.384c.125.094.263.177.413.25.151.073.315.109.492.109a.847.847 0 00.601-.226c.161-.151.315-.408.46-.772l.218-.593-3.339-7.24h2.559l1.825 4.619 1.654-4.619h2.387l-2.995 7.271c-.167.406-.331.808-.492 1.209-.162.4-.359.759-.593 1.076s-.52.575-.858.772c-.338.198-.762.297-1.271.297-.396 0-.755-.052-1.077-.156s-.619-.255-.89-.453l.905-1.545zm8.691-3.416c.239.218.554.4.944.546.39.146.767.219 1.131.219.333 0 .609-.042.827-.125.219-.083.328-.244.328-.484a.49.49 0 00-.071-.258c-.047-.078-.133-.151-.257-.218s-.299-.138-.523-.211a18.978 18.978 0 00-.851-.25 5.608 5.608 0 01-.834-.289 3.024 3.024 0 01-.733-.445c-.213-.177-.385-.39-.515-.64s-.195-.541-.195-.874c0-.343.078-.653.234-.928s.372-.515.647-.718a3.07 3.07 0 01.983-.468c.38-.109.788-.164 1.225-.164.624 0 1.17.07 1.638.211.468.141.9.346 1.295.616l-.952 1.482a4.823 4.823 0 00-.819-.421 2.73 2.73 0 00-1.037-.187c-.343 0-.593.05-.749.148-.156.099-.234.232-.234.398 0 .239.161.416.484.53.322.115.759.245 1.311.39.749.208 1.292.494 1.63.858.338.364.507.848.507 1.451 0 .406-.091.754-.273 1.045a2.29 2.29 0 01-.733.726 3.45 3.45 0 01-1.045.429c-.39.094-.788.14-1.194.14a6.354 6.354 0 01-1.857-.265c-.583-.177-1.056-.447-1.42-.811l1.108-1.435zm9.596-8.145h2.247v3.635c.208-.219.491-.39.85-.515a3.233 3.233 0 011.069-.187c.52 0 .983.099 1.388.297.406.198.747.466 1.022.804.276.338.487.728.632 1.17.146.442.219.913.219 1.412 0 .593-.096 1.139-.289 1.638a3.53 3.53 0 01-.834 1.279 3.8 3.8 0 01-1.342.827c-.53.197-1.134.296-1.81.296a8.744 8.744 0 01-1.771-.172 11.368 11.368 0 01-1.381-.359V64.062zm2.247 8.628c.125.052.262.091.413.117.151.026.361.039.632.039.593 0 1.053-.192 1.381-.577.328-.385.492-.89.492-1.513 0-.229-.029-.453-.086-.671a1.916 1.916 0 00-.257-.585c-.115-.172-.263-.312-.445-.421s-.403-.164-.663-.164c-.499 0-.869.138-1.108.413s-.359.643-.359 1.1v2.262zm6.568 2.933c.125.094.263.177.414.25.151.073.315.109.491.109a.847.847 0 00.601-.226c.161-.151.315-.408.461-.772l.218-.593-3.339-7.24h2.559l1.826 4.619 1.654-4.619h2.387l-2.996 7.271c-.166.406-.33.808-.491 1.209-.161.4-.359.759-.593 1.076-.234.317-.52.575-.858.772s-.762.297-1.272.297c-.395 0-.754-.052-1.076-.156s-.619-.255-.889-.453l.905-1.545zm11.406 0c.125.094.263.177.414.25.151.073.315.109.491.109a.847.847 0 00.601-.226c.161-.151.315-.408.461-.772l.218-.593-3.339-7.24h2.559l1.826 4.619 1.654-4.619h2.387l-2.996 7.271c-.166.406-.33.808-.491 1.209-.161.4-.359.759-.593 1.076-.234.317-.52.575-.858.772s-.762.297-1.272.297c-.395 0-.754-.052-1.076-.156s-.619-.255-.889-.453l.905-1.545zm7.458-4.821c0-.54.096-1.048.289-1.521a3.704 3.704 0 012.044-2.075c.484-.203 1.016-.304 1.599-.304s1.113.102 1.592.304c.478.203.889.481 1.232.835s.611.767.804 1.24c.192.473.289.981.289 1.521s-.096 1.048-.289 1.521c-.193.473-.46.887-.804 1.24s-.754.635-1.232.843c-.479.208-1.009.312-1.592.312s-1.115-.104-1.599-.312c-.484-.208-.897-.489-1.24-.843s-.611-.767-.804-1.24a4.01 4.01 0 01-.289-1.521zm3.932 1.966c.281 0 .531-.055.749-.164.218-.109.402-.257.554-.445.151-.187.263-.398.335-.632a2.455 2.455 0 000-1.452 1.826 1.826 0 00-.335-.624 1.698 1.698 0 00-.554-.437c-.219-.109-.468-.164-.749-.164s-.533.055-.756.164a1.582 1.582 0 00-.554.437c-.146.182-.258.39-.336.624-.078.234-.117.476-.117.726s.039.492.117.726.19.445.336.632c.145.187.33.336.554.445.223.109.476.164.756.164zm5.227-5.617h2.247v4.213c0 .416.102.743.305.983.203.239.501.359.897.359.229 0 .431-.044.609-.133a1.42 1.42 0 00.733-.865c.062-.198.093-.401.093-.609v-3.948h2.231v7.318h-2.153l-.062-.78c-.24.281-.554.513-.944.695-.39.182-.798.273-1.225.273-.843 0-1.508-.25-1.997-.749-.489-.499-.734-1.238-.734-2.216v-4.541zm8.784 0h2.153l.078.921c.187-.25.445-.488.772-.717.328-.229.752-.343 1.272-.343.197 0 .367.01.507.031.14.021.278.057.413.109l-.359 1.982a2.68 2.68 0 00-.811-.109c-.531 0-.959.159-1.288.476-.327.317-.491.767-.491 1.35v3.62h-2.247v-7.318zm9.705 5.056c.239.218.554.4.944.546.39.146.767.219 1.131.219.333 0 .609-.042.827-.125.218-.083.328-.244.328-.484a.49.49 0 00-.07-.258c-.047-.078-.133-.151-.258-.218s-.299-.138-.523-.211a19.283 19.283 0 00-.85-.25 5.66 5.66 0 01-.835-.289 3.044 3.044 0 01-.733-.445 2.04 2.04 0 01-.514-.64 1.868 1.868 0 01-.195-.874c0-.343.078-.653.234-.928s.372-.515.648-.718a3.06 3.06 0 01.983-.468c.38-.109.788-.164 1.225-.164.624 0 1.17.07 1.638.211.468.141.899.346 1.295.616l-.951 1.482a4.9 4.9 0 00-.819-.421 2.731 2.731 0 00-1.038-.187c-.343 0-.592.05-.749.148-.156.099-.234.232-.234.398 0 .239.161.416.484.53.323.115.759.245 1.311.39.749.208 1.292.494 1.63.858.338.364.507.848.507 1.451 0 .406-.091.754-.272 1.045a2.284 2.284 0 01-.734.726c-.307.193-.656.336-1.046.429s-.788.14-1.193.14a6.354 6.354 0 01-1.857-.265c-.583-.177-1.056-.447-1.42-.811l1.108-1.435zm6.756-8.145h2.403v2.013h-2.403v-2.013zm.078 3.089h2.247v7.318h-2.247v-7.318zm8.94 6.585c-.229.27-.523.497-.882.679s-.767.273-1.225.273c-.447 0-.866-.088-1.256-.265-.39-.177-.728-.429-1.014-.757s-.513-.723-.679-1.186a4.598 4.598 0 01-.25-1.568c0-.655.117-1.23.351-1.724s.536-.903.905-1.225c.369-.322.78-.564 1.232-.726s.897-.242 1.334-.242c.354 0 .629.023.827.07.197.047.4.107.609.179v-3.183h2.231v10.407h-2.091l-.094-.733zm-.046-4.572c-.156-.094-.325-.161-.507-.203s-.408-.062-.679-.062c-.572 0-1.017.192-1.334.577-.318.385-.476.879-.476 1.482 0 .531.13.965.39 1.303.259.338.65.507 1.17.507.25 0 .466-.044.648-.133.182-.088.333-.205.452-.351s.205-.317.258-.515c.052-.198.078-.4.078-.609v-1.997zm10.796 4.509a7.955 7.955 0 00-.375.258c-.167.12-.382.237-.647.351-.265.115-.58.216-.944.304s-.78.133-1.248.133c-.624 0-1.186-.096-1.685-.289s-.923-.46-1.272-.804-.614-.757-.796-1.24-.273-1.016-.273-1.599c0-.51.086-1.001.258-1.474.171-.473.419-.886.741-1.24a3.595 3.595 0 011.186-.85c.468-.213.998-.32 1.591-.32s1.113.104 1.56.312.825.497 1.131.866.539.811.695 1.326.234 1.079.234 1.693v.374h-5.211c.01.396.184.741.523 1.038.338.296.803.445 1.396.445.583 0 1.055-.086 1.42-.258.364-.172.629-.32.796-.445l.921 1.42zm-1.966-3.636a1.398 1.398 0 00-.375-.921 1.499 1.499 0 00-.468-.335c-.187-.088-.411-.133-.671-.133s-.489.044-.687.133c-.198.088-.362.2-.492.335s-.229.284-.296.445c-.068.161-.101.32-.101.476h3.089z"/></g></svg>